<svg xmlns="http://www.w3.org/2000/svg" xmlns:xlink="http://www.w3.org/1999/xlink" width="1400" zoomAndPan="magnify" viewBox="0 0 1050 299.999988" height="400" preserveAspectRatio="xMidYMid meet" version="1.0"><defs><g/><clipPath id="6b15231327"><path d="M 252 9 L 268.5 9 L 268.5 26 L 252 26 Z M 252 9 " clip-rule="nonzero"/></clipPath></defs><path fill="#393536" d="M 30.078125 141.191406 L 30.078125 109.847656 C 36.429688 109.5 41.21875 108.539062 44.441406 106.972656 C 47.660156 105.402344 50.449219 102.773438 52.800781 99.070312 C 55.152344 95.371094 56.761719 90.734375 57.632812 85.160156 C 58.328125 80.984375 58.675781 73.710938 58.675781 63.351562 C 58.675781 46.460938 59.460938 34.679688 61.027344 28.023438 C 62.597656 21.363281 65.421875 16.007812 69.515625 11.957031 C 73.609375 7.910156 79.574219 4.710938 87.410156 2.359375 C 92.71875 0.792969 101.078125 0.0078125 112.484375 0.0078125 L 119.40625 0.0078125 L 119.40625 31.226562 C 109.742188 31.226562 103.539062 31.769531 100.796875 32.855469 C 98.054688 33.945312 96.03125 35.597656 94.722656 37.816406 C 93.417969 40.035156 92.765625 43.847656 92.765625 49.246094 C 92.765625 54.730469 92.371094 65.136719 91.589844 80.460938 C 91.152344 89.078125 90.023438 96.066406 88.195312 101.421875 C 86.363281 106.777344 84.035156 111.195312 81.207031 114.675781 C 78.375 118.160156 74.042969 121.773438 68.210938 125.519531 C 73.347656 128.480469 77.546875 131.941406 80.816406 135.902344 C 84.082031 139.863281 86.582031 144.671875 88.324219 150.332031 C 90.066406 155.992188 91.199219 163.570312 91.71875 173.054688 C 92.328125 187.511719 92.632812 196.738281 92.632812 200.746094 C 92.632812 206.492188 93.328125 210.496094 94.722656 212.761719 C 96.117188 215.023438 98.226562 216.746094 101.058594 217.921875 C 103.886719 219.09375 110.003906 219.683594 119.40625 219.683594 L 119.40625 251.027344 L 112.484375 251.027344 C 100.730469 251.027344 91.71875 250.089844 85.449219 248.21875 C 79.179688 246.347656 73.894531 243.234375 69.582031 238.882812 C 65.273438 234.527344 62.375 229.148438 60.898438 222.75 C 59.414062 216.351562 58.675781 206.273438 58.675781 192.519531 C 58.675781 176.5 57.980469 166.089844 56.585938 161.300781 C 54.671875 154.335938 51.777344 149.351562 47.902344 146.347656 C 44.027344 143.34375 38.085938 141.625 30.078125 141.191406 " fill-opacity="1" fill-rule="nonzero"/><path fill="#0000ff" d="M 228.214844 65.035156 L 207.769531 65.035156 L 207.769531 44.59375 L 228.214844 44.59375 L 228.214844 65.035156 " fill-opacity="1" fill-rule="nonzero"/><path fill="#0000ff" d="M 223.386719 105.914062 L 207.769531 105.914062 L 207.769531 90.300781 L 223.386719 90.300781 L 223.386719 105.914062 " fill-opacity="1" fill-rule="nonzero"/><path fill="#0000ff" d="M 163.917969 80.652344 L 163.917969 65.035156 L 179.539062 65.035156 L 179.539062 80.652344 Z M 203.648438 153.671875 C 199.730469 150.667969 196.8125 145.683594 194.894531 138.71875 C 193.84375 134.789062 193.214844 127.257812 193.011719 116.136719 L 179.539062 116.136719 L 179.539062 95.695312 L 192.714844 95.695312 C 192.386719 87.8125 191.699219 81.671875 190.652344 77.269531 C 189.128906 70.871094 186.230469 65.472656 181.96875 61.074219 C 177.699219 56.679688 172.433594 53.566406 166.164062 51.734375 C 159.894531 49.90625 150.886719 48.996094 139.128906 48.996094 L 132.207031 48.996094 L 132.207031 80.207031 C 142.046875 80.207031 148.378906 80.796875 151.210938 81.96875 C 154.039062 83.148438 155.996094 84.824219 157.089844 87 C 158.175781 89.175781 158.761719 93.527344 158.851562 100.058594 C 159.285156 120.78125 159.980469 134.191406 160.9375 140.285156 C 162.417969 149.167969 165.203125 156.476562 169.296875 162.226562 C 172.257812 166.230469 176.957031 170.324219 183.402344 174.503906 C 178.441406 177.375 174.367188 180.707031 171.191406 184.496094 C 168.011719 188.28125 165.464844 192.898438 163.550781 198.339844 C 161.636719 203.78125 160.460938 211.027344 160.023438 220.082031 C 159.328125 235.058594 158.957031 245.199219 158.917969 250.511719 C 158.871094 255.824219 158.175781 259.589844 156.824219 261.8125 C 155.472656 264.03125 153.367188 265.730469 150.492188 266.90625 C 147.617188 268.082031 141.523438 268.667969 132.207031 268.667969 L 132.207031 300.011719 L 139.128906 300.011719 C 150.535156 300.011719 158.894531 299.226562 164.203125 297.660156 C 172.128906 295.308594 178.132812 292.113281 182.230469 288.0625 C 186.320312 284.011719 189.128906 278.636719 190.652344 271.933594 C 192.175781 265.226562 192.9375 253.429688 192.9375 236.539062 C 192.9375 226.265625 193.285156 219.039062 193.980469 214.859375 C 194.941406 209.289062 196.574219 204.652344 198.878906 200.949219 C 201.183594 197.25 203.949219 194.617188 207.171875 193.050781 C 210.390625 191.480469 215.183594 190.523438 221.539062 190.175781 L 221.539062 158.828125 C 213.527344 158.394531 207.566406 156.675781 203.648438 153.671875 " fill-opacity="1" fill-rule="nonzero"/><g clip-path="url(#6b15231327)"><path fill="#0000ff" d="M 268.070312 25.332031 L 252.453125 25.332031 L 252.453125 9.714844 L 268.070312 9.714844 L 268.070312 25.332031 " fill-opacity="1" fill-rule="nonzero"/></g><path fill="#0000ff" d="M 189.757812 44.59375 L 160.605469 44.59375 L 160.605469 15.4375 L 189.757812 15.4375 L 189.757812 44.59375 " fill-opacity="1" fill-rule="nonzero"/><g fill="#393536" fill-opacity="1"><g transform="translate(349.440485, 204.572786)"><g><path d="M 73.71875 -99.3125 L 73.71875 -84.75 C 73.71875 -78.300781 71.9375 -73.773438 68.375 -71.171875 C 64.820312 -68.578125 59.828125 -67.222656 53.390625 -67.109375 L 53.046875 -66.78125 C 60.617188 -66.320312 66.296875 -64.003906 70.078125 -59.828125 C 73.867188 -55.648438 75.765625 -50.394531 75.765625 -44.0625 L 75.765625 -25.9375 C 75.765625 -17.007812 73.304688 -10.453125 68.390625 -6.265625 C 63.472656 -2.085938 56.269531 0 46.78125 0 L 3.734375 0 L 3.734375 -121.015625 L 48.640625 -121.015625 C 57.117188 -121.015625 63.414062 -119.257812 67.53125 -115.75 C 71.65625 -112.25 73.71875 -106.769531 73.71875 -99.3125 Z M 37.453125 -73.890625 C 39.828125 -73.890625 41.609375 -74.625 42.796875 -76.09375 C 43.984375 -77.5625 44.578125 -79.203125 44.578125 -81.015625 L 44.578125 -94.578125 C 44.578125 -96.148438 44.007812 -97.726562 42.875 -99.3125 C 41.75 -100.894531 39.828125 -101.6875 37.109375 -101.6875 L 33.890625 -101.6875 L 33.890625 -73.890625 Z M 44.578125 -27.625 L 44.578125 -48.296875 C 44.578125 -50.671875 43.925781 -52.476562 42.625 -53.71875 C 41.320312 -54.96875 39.484375 -55.59375 37.109375 -55.59375 L 33.890625 -55.59375 L 33.890625 -20.34375 C 34.347656 -20.226562 34.972656 -20.171875 35.765625 -20.171875 C 38.472656 -20.171875 40.617188 -20.734375 42.203125 -21.859375 C 43.785156 -22.992188 44.578125 -24.914062 44.578125 -27.625 Z M 44.578125 -27.625 "/></g></g></g><g fill="#393536" fill-opacity="1"><g transform="translate(459.606608, 204.572786)"><g><path d="M 36.953125 -22.875 L 37.28125 -22.875 L 42.546875 -99.3125 L 68.984375 -99.3125 L 57.453125 -14.234375 C 56.660156 -8.804688 55.671875 -4.085938 54.484375 -0.078125 C 53.296875 3.929688 51.234375 7.375 48.296875 10.25 C 45.359375 13.132812 41.347656 14.578125 36.265625 14.578125 L 4.234375 14.578125 L 4.234375 0.34375 L 11.359375 0.34375 C 13.390625 0.34375 14.859375 -0.132812 15.765625 -1.09375 C 16.671875 -2.0625 17.125 -3.5625 17.125 -5.59375 C 17.125 -6.613281 16.835938 -8.476562 16.265625 -11.1875 L 0 -99.3125 L 29.15625 -99.3125 Z M 36.953125 -22.875 "/></g></g></g><g fill="#393536" fill-opacity="1"><g transform="translate(560.281609, 204.572786)"><g><path d="M 38.296875 -114.578125 L 38.296875 -99.3125 L 46.265625 -99.3125 L 46.265625 -83.046875 L 38.296875 -83.046875 L 38.296875 -20 C 38.296875 -17.507812 39.425781 -16.265625 41.6875 -16.265625 L 46.265625 -16.265625 L 46.265625 0 L 28.8125 0 C 22.707031 0 18.070312 -0.84375 14.90625 -2.53125 C 11.75 -4.226562 9.660156 -6.628906 8.640625 -9.734375 C 7.628906 -12.847656 7.125 -17.003906 7.125 -22.203125 L 7.125 -83.046875 L 0.84375 -83.046875 L 0.84375 -99.3125 L 7.125 -99.3125 L 7.125 -114.578125 Z M 38.296875 -114.578125 "/></g></g></g><g fill="#393536" fill-opacity="1"><g transform="translate(639.093121, 204.572786)"><g><path d="M 39.328125 -101.859375 C 45.535156 -101.859375 51.179688 -100.585938 56.265625 -98.046875 C 61.347656 -95.503906 65.382812 -91.800781 68.375 -86.9375 C 71.375 -82.082031 72.875 -76.320312 72.875 -69.65625 L 72.875 -48.140625 L 33.890625 -48.140625 L 33.890625 -21.6875 C 33.890625 -17.738281 35.414062 -15.765625 38.46875 -15.765625 C 41.976562 -15.765625 43.734375 -17.96875 43.734375 -22.375 L 43.734375 -40.5 L 72.875 -40.5 L 72.875 -29.65625 C 72.875 -19.9375 70.019531 -12.140625 64.3125 -6.265625 C 58.613281 -0.390625 50.285156 2.546875 39.328125 2.546875 C 27.796875 2.546875 18.976562 -0.363281 12.875 -6.1875 C 6.78125 -12.007812 3.734375 -19.832031 3.734375 -29.65625 L 3.734375 -69.65625 C 3.734375 -79.601562 6.835938 -87.457031 13.046875 -93.21875 C 19.265625 -98.976562 28.023438 -101.859375 39.328125 -101.859375 Z M 33.890625 -77.625 L 33.890625 -64.40625 L 43.734375 -64.40625 L 43.734375 -76.953125 C 43.734375 -81.359375 41.976562 -83.5625 38.46875 -83.5625 C 35.414062 -83.5625 33.890625 -81.582031 33.890625 -77.625 Z M 33.890625 -77.625 "/></g></g></g><g fill="#393536" fill-opacity="1"><g transform="translate(746.03905, 204.572786)"><g><path d="M 57.109375 -99.484375 L 33.390625 -23.390625 L 58.640625 -23.390625 L 58.640625 0 L 1.015625 0 L 1.015625 -18.984375 L 26.78125 -97.625 L 3.890625 -97.625 L 3.890625 -121.015625 L 57.109375 -121.015625 Z M 57.109375 -99.484375 "/></g></g></g><g fill="#393536" fill-opacity="1"><g transform="translate(837.392439, 204.572786)"><g><path d="M 39.328125 -101.859375 C 45.535156 -101.859375 51.179688 -100.585938 56.265625 -98.046875 C 61.347656 -95.503906 65.382812 -91.800781 68.375 -86.9375 C 71.375 -82.082031 72.875 -76.320312 72.875 -69.65625 L 72.875 -48.140625 L 33.890625 -48.140625 L 33.890625 -21.6875 C 33.890625 -17.738281 35.414062 -15.765625 38.46875 -15.765625 C 41.976562 -15.765625 43.734375 -17.96875 43.734375 -22.375 L 43.734375 -40.5 L 72.875 -40.5 L 72.875 -29.65625 C 72.875 -19.9375 70.019531 -12.140625 64.3125 -6.265625 C 58.613281 -0.390625 50.285156 2.546875 39.328125 2.546875 C 27.796875 2.546875 18.976562 -0.363281 12.875 -6.1875 C 6.78125 -12.007812 3.734375 -19.832031 3.734375 -29.65625 L 3.734375 -69.65625 C 3.734375 -79.601562 6.835938 -87.457031 13.046875 -93.21875 C 19.265625 -98.976562 28.023438 -101.859375 39.328125 -101.859375 Z M 33.890625 -77.625 L 33.890625 -64.40625 L 43.734375 -64.40625 L 43.734375 -76.953125 C 43.734375 -81.359375 41.976562 -83.5625 38.46875 -83.5625 C 35.414062 -83.5625 33.890625 -81.582031 33.890625 -77.625 Z M 33.890625 -77.625 "/></g></g></g><g fill="#393536" fill-opacity="1"><g transform="translate(944.338367, 204.572786)"><g><path d="M 53.390625 -101.859375 C 60.390625 -101.859375 65.554688 -99.484375 68.890625 -94.734375 C 72.222656 -89.992188 73.890625 -83.78125 73.890625 -76.09375 L 73.890625 0 L 43.734375 0 L 43.734375 -74.75 C 43.734375 -76.21875 43.390625 -77.710938 42.703125 -79.234375 C 42.023438 -80.753906 40.785156 -81.515625 38.984375 -81.515625 C 36.160156 -81.515625 34.75 -79.3125 34.75 -74.90625 L 34.75 0 L 4.578125 0 L 4.578125 -99.3125 L 34.75 -99.3125 L 34.75 -91.6875 L 35.078125 -91.6875 C 36.660156 -94.625 39.085938 -97.050781 42.359375 -98.96875 C 45.640625 -100.894531 49.316406 -101.859375 53.390625 -101.859375 Z M 53.390625 -101.859375 "/></g></g></g></svg>